<svg width="98" height="67" viewBox="0 0 98 67" fill="none" xmlns="http://www.w3.org/2000/svg">
<line x1="61.3598" y1="1.77694" x2="70.3885" y2="18.0286" stroke="white" stroke-opacity="0.1" stroke-width="2" stroke-linecap="round"/>
<line x1="86.3747" y1="48.7203" x2="96.3318" y2="65.0137" stroke="white" stroke-opacity="0.1" stroke-width="2" stroke-linecap="round"/>
<line x1="71" y1="18.3884" x2="90" y2="18.3884" stroke="white" stroke-opacity="0.1" stroke-width="2" stroke-linecap="round"/>
<line x1="66" y1="48.3884" x2="85" y2="48.3884" stroke="white" stroke-opacity="0.1" stroke-width="2" stroke-linecap="round"/>
<line x1="70.3644" y1="18.7549" x2="60.3665" y2="36.024" stroke="white" stroke-opacity="0.1" stroke-width="2" stroke-linecap="round"/>
<line x1="96.3644" y1="30.7549" x2="86.3665" y2="48.024" stroke="white" stroke-opacity="0.1" stroke-width="2" stroke-linecap="round"/>
<line x1="1" y1="-1" x2="19.5913" y2="-1" transform="matrix(-0.485643 0.874157 0.874157 0.485643 38 1)" stroke="white" stroke-opacity="0.1" stroke-width="2" stroke-linecap="round"/>
<line x1="1" y1="-1" x2="20.095" y2="-1" transform="matrix(-0.52145 0.853282 0.853282 0.52145 13 48)" stroke="white" stroke-opacity="0.1" stroke-width="2" stroke-linecap="round"/>
<line x1="1" y1="-1" x2="20" y2="-1" transform="matrix(-1 0 0 1 28 19)" stroke="white" stroke-opacity="0.1" stroke-width="2" stroke-linecap="round"/>
<line x1="1" y1="-1" x2="20" y2="-1" transform="matrix(-1 0 0 1 33 49)" stroke="white" stroke-opacity="0.1" stroke-width="2" stroke-linecap="round"/>
<line x1="1" y1="-1" x2="20.9545" y2="-1" transform="matrix(0.501036 0.865426 0.865426 -0.501036 28 17)" stroke="white" stroke-opacity="0.1" stroke-width="2" stroke-linecap="round"/>
<line x1="1" y1="-1" x2="20.9545" y2="-1" transform="matrix(0.501036 0.865426 0.865426 -0.501036 2 29)" stroke="white" stroke-opacity="0.1" stroke-width="2" stroke-linecap="round"/>
</svg>
